<svg xmlns="http://www.w3.org/2000/svg" viewBox="0 0 413.5 169.5" enable-background="new 0 0 413.5 169.5"><path fill="#FFF" d="M258.3 45.8c-87.3-51.2-139.9-43.9-168.6-28.8-27.1 14.3-45.1 42.1-48.7 75l-31.2.9c-1.8.1-3.4 1.2-4 2.8-.7 1.7-.3 3.6 1 4.8l60.2 61.6c.8.9 2 1.4 3.2 1.4h.1c1.3 0 2.4-.6 3.3-1.5l57.2-65c1.2-1.3 1.5-3.3.7-4.9-.8-1.6-2.4-2.6-4.2-2.6l-31.9.9c2.5-14.9 9.8-33.2 28.9-44.8 28.1-17 73.1-14.1 130 8.3 2.2.9 4.7-.1 5.7-2.2 1.1-2.1.4-4.7-1.7-5.9zm-40.8 5.7h-4c-1.1 0-2 .9-2 2 0-1.1-.9-2-2-2h-3c-1.1 0-2 .9-2 2v9.8c0 .8-.2 1.3-.3 1.5 0 .1-.3.2-1 .2-.8 0-1.2-.2-1.2-.2-.2-.3-.5-.7-.5-1.5v-9.8c0-1.1-.9-2-2-2h-3c-1 0-1.9.8-2 1.8-.2-.5-.6-.9-1.1-1.1-1.8-.8-3.7-1.2-5.7-1.2-3.2 0-5.8.9-7.7 2.8-1.3 1.3-2.2 2.9-2.6 4.8v-5.2c0-1.1-.9-2-2-2h-3c-1.1 0-2 .9-2 2v9.8c0 1.1-.3 1.4-.3 1.5 0 .1-.3.2-1 .2-.8 0-1.2-.2-1.2-.2-.2-.3-.5-.7-.5-1.5v-9.8c0-1.1-.9-2-2-2h-3c-1.1 0-2 .9-2 2v10.4c0 2.5.8 4.5 2.4 5.9 1.5 1.4 3.7 2.2 6.3 2.2 1.7 0 3.2-.3 4.5-.9 1.6-.8 2.4-1.9 3-2.9.7-1.2.9-2.4.9-3.6.4 1.8 1.1 3.4 2.2 4.6 1.7 1.9 4.1 2.8 7.2 2.8 1 0 2-.1 3.1-.2 1-.2 2.1-.4 3.3-.8.8-.3 1.3-1 1.3-1.9v-5.1c0 2.5.8 4.4 2.4 5.9 1.5 1.4 3.7 2.2 6.3 2.2 1.7 0 3.2-.3 4.5-.9 1.6-.7 2.4-1.9 3-2.9.8-1.4.9-2.8.9-4.2v5.6c0 1.1.9 2 2 2h4c1.1 0 2-.9 2-2v-16c-.2-1.2-1.1-2.1-2.2-2.1zm-31 7c-.2 0-.5 0-.7.1.5-.5 1.1-.7 1.9-.7.9 0 1.7.2 2.6.6h-3.8zm8 2c0-1.1-.8-1.9-1.9-2 .3-.2.6-.5.7-.9l1.2-2.8v5.7zm148-5.4c-.5-.1-.9-.1-1.3-.1h-.3c-1.1 0-2.1.3-3.2 1-.3-.3-.8-.4-1.3-.4h-3c-1 0-1.9.8-2 1.8l-.3-.3c-1.3-1.4-3.4-2.1-5.8-2.1s-4.4.8-5.8 2.4c-.4.4-.7.9-1 1.5-.2-.5-.5-1-.8-1.4-1.3-1.7-3-2.6-5.1-2.6-1.2 0-2.4.3-3.3.9-.3-.1-.5-.2-.8-.2h-3c-1.1 0-2 .9-2 2v.8c-.6-1-1.4-1.7-2.4-2.3-1.2-.7-2.6-1-4.2-1-2.5 0-4.5.8-6 2.3-.6.6-1.1 1.4-1.4 2.2v-6.9c0-1.1-.9-2-2-2h-3c-1.1 0-2 .9-2 2v5.8c-.3-.5-.6-.9-.9-1.2-1.4-1.4-3.2-2.1-5.5-2.1-2.1 0-3.8.6-5.2 1.7l-.1-.3c-.4-.5-1-.9-1.7-.9h-3.6c-.8 0-1.6.5-1.9 1.3l-1.1 3-1.1-3c-.3-.8-1-1.3-1.9-1.3h-3.6c-.7 0-1.3.3-1.6.9-1.3-.9-3-1.4-5-1.4-2.4 0-4.4.8-5.8 2.4-.3.3-.6.7-.8 1.1-.4-1.7-1.2-3.1-2.5-4.3-1.8-1.7-4.3-2.5-7.6-2.5h-5.2c-1.1 0-2 .9-2 2v16c0 1.1.9 2 2 2h4.7c3.5 0 6.2-.8 8-2.6.7-.7 1.3-1.4 1.8-2.3.4 1.2 1 2.2 1.9 3.1 1.5 1.5 3.6 2.2 6.1 2.2 1.1 0 2.2-.1 3-.3.5-.1.9-.3 1.2-.4.2-.1.5-.2.9-.3.8-.3 1.4-1 1.4-1.9v-2.7c.3-.2.5-.4.7-.6l1.8 4.6c.3.8 1 1.3 1.9 1.3h3.5c.8 0 1.6-.5 1.9-1.3l2.1-5.2c.3 1.9 1 3.4 2.2 4.6 1.5 1.5 3.6 2.2 6.1 2.2.6 0 2 0 3.1-.3l1.4-.4.9-.3c.3-.1.5-.2.7-.4.4.6 1 1 1.7 1h3c1.1 0 2-.9 2-2v-2.3l.2.5c.7 1.3 1.7 2.4 2.9 3.1 1.2.7 2.6 1.1 4.2 1.1 2.5 0 4.5-.8 6-2.4.3-.3.5-.6.7-.9v6.9c0 1.1.9 2 2 2h4c1.1 0 2-.9 2-2v-3.6c.4.1.8.1 1.1.1 1.4 0 2.6-.4 3.7-1.2.9-.7 1.7-1.6 2.2-2.8.3.6.8 1.2 1.3 1.7 1.5 1.5 3.6 2.2 6.1 2.2 1.2 0 2.1-.1 3-.3.5-.1.9-.3 1.2-.4.2-.1.5-.2.9-.3.3-.1.5-.2.7-.4.4.6 1 1 1.7 1h4c1.1 0 2-.9 2-2v-6.2c0-.3 0-.7.2-.9.1-.1.3-.3 1.1-.3h.5c.6.2 1.2 0 1.7-.3s.8-.9.8-1.5l.2-3.2c.3-1.3-.3-2.2-1.3-2.4zm-109 9.3v-5.9c1.4.1 2 .7 2 2.9 0 2-.4 2.8-2 3zm63.6.7h-.6c-.1-.1-.3-.6-.3-1.7 0-1.2.2-1.6.3-1.7h.6c.1.1.3.5.3 1.7s-.2 1.6-.3 1.7zm14.7 0h-.2c-.1-.3-.1-1.4-.1-1.8v-.3c0-.8 0-1.2.1-1.4h.2c.1.1.2.6.2 1.7 0 1.4-.3 1.8-.2 1.8zm97.7-1.6c0-.6-.8-1.2-1.4-1.7.2-.2.3-.4.4-.7l1-2.5c.4-1 0-2.1-1-2.6-1.7-.8-3.5-1.2-5.2-1.2-2 0-3.6.4-4.8 1.3-.4.3-.7.5-1 .9v-4.6c0-1.1-.9-2-2-2h-3c-1.1 0-2 .9-2 2v7.1c-.1-.2-.1-.4-.2-.5-.7-1.3-1.7-2.4-2.9-3.1-1.2-.7-2.6-1-4.2-1-2.5 0-4.5.8-6 2.3-.5.5-.9 1.1-1.2 1.7-.7-1.3-1.6-2.3-2.9-3-1.2-.7-2.6-1-4.2-1-2.2 0-4.1.6-5.5 1.9v-3.3c0-1.1-.9-2-2-2h-13c-1.1 0-2 .9-2 2v3c0 1.1.9 2 2 2h3v11c0 1.1.9 2 2 2h3c1.1 0 2-.9 2-2v-11h3c.2 0 .4 0 .6-.1-.8 1.4-1.3 3-1.3 5 0 1.6.3 3.1 1 4.3.7 1.3 1.7 2.4 2.9 3.1 1.2.7 2.6 1.1 4.2 1.1 2.5 0 4.5-.8 6-2.4.5-.5.9-1.1 1.2-1.7.7 1.3 1.6 2.3 2.9 3.1 1.2.7 2.6 1.1 4.2 1.1 2.5 0 4.5-.8 6-2.4.6-.6 1.1-1.4 1.4-2.2v2.2c0 1.1.9 2 2 2h3c.7 0 1.3-.3 1.6-.8.7.6 1.8.8 2.6 1h.2c.8.1 1.6.2 2.7.2 2.2 0 4-.5 5.2-1.4 1-.7 2.2-2.1 2.2-4.5-.1-1-.5-1.9-.5-2.6zm-40.3 1.6h-.6c-.1-.1-.3-.6-.3-1.7 0-1.2.2-1.6.3-1.7h.6c.1.1.3.5.3 1.7s-.2 1.6-.3 1.7zm14.3 0h-.6c-.1-.1-.3-.6-.3-1.7 0-1.2.2-1.6.3-1.7h.6c.1.1.3.5.3 1.7-.1 1.2-.3 1.6-.3 1.7zm14-.5v-.6l.4.5-.4.1z"/><path fill="#901146" d="M256.1 49.7c-144.5-84.7-206.5-15.4-210.9 46.7l-35.2 1 60.3 61.6 57.2-65-37.2 1.1c5.7-52.3 53.9-89.4 165.8-45.4zm-80.2 3.6v10.6c0 1.2-.3 2.3-.8 3.2-.5.9-1.3 1.6-2.4 2.1-1 .5-2.2.7-3.6.7-2.1 0-3.7-.5-4.9-1.6-1.2-1.1-1.8-2.6-1.8-4.4v-10.6h3.5v10c0 1.3.3 2.2.8 2.8s1.4.9 2.5.9 2-.3 2.5-.9.8-1.5.8-2.8v-10h3.4zm10.3 7.2h6.5v8.5c-1.1.3-2 .6-3 .7-.9.1-1.9.2-2.9.2-2.5 0-4.4-.7-5.7-2.2s-2-3.5-2-6.3c0-2.6.8-4.7 2.3-6.2 1.5-1.5 3.6-2.2 6.3-2.2 1.7 0 3.3.3 4.9 1l-1.2 2.8c-1.2-.6-2.4-.9-3.7-.9-1.5 0-2.7.5-3.6 1.5-.9 1-1.4 2.4-1.4 4.1 0 1.8.4 3.1 1.1 4.1.7.9 1.8 1.4 3.2 1.4.7 0 1.5-.1 2.2-.2v-3.4h-3.1v-2.9zm23.7-7.2v10.6c0 1.2-.3 2.3-.8 3.2-.5.9-1.3 1.6-2.4 2.1-1 .5-2.2.7-3.6.7-2.1 0-3.7-.5-4.9-1.6-1.2-1.1-1.8-2.6-1.8-4.4v-10.6h3.5v10c0 1.3.3 2.2.8 2.8s1.4.9 2.5.9 2-.3 2.5-.9.8-1.5.8-2.8v-10h3.4zm4.1 16.4v-16.4h3.5v16.4h-3.5zm27.1-8.4c0 2.7-.8 4.8-2.3 6.2-1.5 1.4-3.8 2.2-6.7 2.2h-4.6v-16.4h5.2c2.7 0 4.8.7 6.2 2.1s2.2 3.4 2.2 5.9zm-3.6.1c0-3.5-1.6-5.3-4.7-5.3h-1.8v10.7h1.5c3.4 0 5-1.8 5-5.4zm12.5 8.5c-2 0-3.6-.6-4.7-1.7s-1.7-2.7-1.7-4.7c0-2.1.5-3.7 1.6-4.9 1.1-1.1 2.5-1.7 4.4-1.7 1.8 0 3.2.5 4.1 1.5 1 1 1.5 2.4 1.5 4.2v1.7h-8.2c0 1 .3 1.7.9 2.3.5.5 1.3.8 2.3.8.8 0 1.5-.1 2.1-.2.7-.2 1.4-.4 2.1-.8v2.6c-.6.3-1.2.5-1.9.7-.7.1-1.6.2-2.5.2zm-.5-10.6c-.7 0-1.3.2-1.7.7-.4.5-.6 1.1-.7 2h4.8c0-.8-.2-1.5-.7-2-.4-.4-1-.7-1.7-.7zm11.3 10.4l-4.8-12.5h3.6l2.4 7.1c.3.9.4 1.8.5 2.6h.1c0-.7.2-1.6.5-2.6l2.4-7.1h3.6l-4.8 12.5h-3.5zm15.8.2c-2 0-3.6-.6-4.7-1.7s-1.7-2.7-1.7-4.7c0-2.1.5-3.7 1.6-4.9 1.1-1.1 2.5-1.7 4.4-1.7 1.8 0 3.2.5 4.1 1.5 1 1 1.5 2.4 1.5 4.2v1.7h-8.1c0 1 .3 1.7.9 2.3.5.5 1.3.8 2.3.8.8 0 1.5-.1 2.1-.2.7-.2 1.4-.4 2.1-.8v2.6c-.6.3-1.2.5-1.9.7-.8.1-1.6.2-2.6.2zm-.5-10.6c-.7 0-1.3.2-1.7.7-.4.5-.6 1.1-.7 2h4.8c0-.8-.2-1.5-.7-2-.4-.4-.9-.7-1.7-.7zm11.8 10.4h-3.4v-17.5h3.4v17.5zm15-6.3c0 2-.5 3.6-1.6 4.8s-2.6 1.7-4.5 1.7c-1.2 0-2.3-.3-3.2-.8-.9-.5-1.6-1.3-2.1-2.3-.5-1-.7-2.1-.7-3.5 0-2 .5-3.6 1.6-4.8 1.1-1.1 2.6-1.7 4.5-1.7 1.2 0 2.3.3 3.2.8.9.5 1.6 1.3 2.1 2.3.5 1 .7 2.2.7 3.5zm-8.6 0c0 1.2.2 2.2.6 2.8.4.6 1.1 1 2 1 .9 0 1.6-.3 2-.9.4-.6.6-1.6.6-2.8 0-1.2-.2-2.2-.6-2.8s-1.1-.9-2-.9c-.9 0-1.6.3-2 .9s-.6 1.4-.6 2.7zm18.3 6.5c-1.5 0-2.6-.5-3.5-1.6h-.1c.1 1 .2 1.7.2 1.8v5.1h-3.4v-18.1h2.8l.5 1.6h.2c.8-1.2 2-1.9 3.6-1.9 1.5 0 2.6.6 3.5 1.7.8 1.1 1.3 2.7 1.3 4.8 0 1.3-.2 2.5-.6 3.5-.4 1-1 1.7-1.7 2.3s-1.8.8-2.8.8zm-1-10.3c-.8 0-1.5.3-1.9.8-.4.5-.6 1.4-.6 2.6v.4c0 1.3.2 2.3.6 2.9.4.6 1 .9 1.9.9 1.5 0 2.3-1.3 2.3-3.8 0-1.2-.2-2.2-.6-2.8-.3-.6-.9-1-1.7-1zm14.4 10.3c-2 0-3.6-.6-4.7-1.7s-1.7-2.7-1.7-4.7c0-2.1.5-3.7 1.6-4.9 1.1-1.1 2.5-1.7 4.4-1.7 1.8 0 3.2.5 4.1 1.5 1 1 1.5 2.4 1.5 4.2v1.7h-8.2c0 1 .3 1.7.9 2.3.5.5 1.3.8 2.3.8.8 0 1.5-.1 2.1-.2.7-.2 1.4-.4 2.1-.8v2.6c-.6.3-1.2.5-1.9.7-.7.1-1.5.2-2.5.2zm-.5-10.6c-.7 0-1.3.2-1.7.7-.4.5-.6 1.1-.7 2h4.8c0-.8-.2-1.5-.7-2-.4-.4-1-.7-1.7-.7zm15.4-2.4c.5 0 .8 0 1.2.1l-.3 3.2c-.3-.1-.6-.1-1-.1-1.1 0-1.9.3-2.6.8-.6.6-.9 1.3-.9 2.4v6.4h-3.4v-12.6h2.6l.5 2.1h.2c.4-.7.9-1.3 1.6-1.7s1.3-.6 2.1-.6zm16 12.8h-3.5v-13.5h-4.4v-2.9h12.4v2.9h-4.5v13.5zm18.1-6.3c0 2-.5 3.6-1.6 4.8s-2.6 1.7-4.5 1.7c-1.2 0-2.3-.3-3.2-.8-.9-.5-1.6-1.3-2.1-2.3-.5-1-.7-2.1-.7-3.5 0-2 .5-3.6 1.6-4.8 1.1-1.1 2.6-1.7 4.5-1.7 1.2 0 2.3.3 3.2.8.9.5 1.6 1.3 2.1 2.3.5 1 .7 2.2.7 3.5zm-8.7 0c0 1.2.2 2.2.6 2.8.4.6 1.1 1 2 1 .9 0 1.6-.3 2-.9.4-.6.6-1.6.6-2.8 0-1.2-.2-2.2-.6-2.8s-1.1-.9-2-.9c-.9 0-1.6.3-2 .9s-.6 1.4-.6 2.7zm22.9 0c0 2-.5 3.6-1.6 4.8s-2.6 1.7-4.5 1.7c-1.2 0-2.3-.3-3.2-.8-.9-.5-1.6-1.3-2.1-2.3-.5-1-.7-2.1-.7-3.5 0-2 .5-3.6 1.6-4.8 1.1-1.1 2.6-1.7 4.5-1.7 1.2 0 2.3.3 3.2.8.9.5 1.6 1.3 2.1 2.3.5 1 .7 2.2.7 3.5zm-8.6 0c0 1.2.2 2.2.6 2.8.4.6 1.1 1 2 1 .9 0 1.6-.3 2-.9.4-.6.6-1.6.6-2.8 0-1.2-.2-2.2-.6-2.8s-1.1-.9-2-.9c-.9 0-1.6.3-2 .9s-.6 1.4-.6 2.7zm14.9 6.3h-3.4v-17.5h3.4v17.5zm12.3-3.7c0 1.3-.4 2.3-1.3 2.9-.9.7-2.2 1-4 1-.9 0-1.7-.1-2.3-.2-.6-.1-1.2-.3-1.8-.5v-2.8c.6.3 1.4.5 2.1.8s1.5.3 2.1.3c1.2 0 1.9-.4 1.9-1.1 0-.3-.1-.5-.2-.7-.2-.2-.4-.4-.9-.6-.4-.2-.9-.5-1.6-.7-1-.4-1.7-.8-2.1-1.1-.5-.3-.8-.7-1-1.2-.2-.4-.3-1-.3-1.6 0-1.1.4-2 1.3-2.6.9-.6 2.1-.9 3.7-.9 1.5 0 3 .3 4.4 1l-1 2.5c-.6-.3-1.2-.5-1.8-.7-.5-.2-1.1-.3-1.7-.3-1 0-1.5.3-1.5.8 0 .3.2.6.5.8.3.2 1 .6 2.1 1 1 .4 1.7.8 2.2 1.1s.8.7 1 1.2c.1.4.2.9.2 1.6z"/></svg>
